<svg width="30" height="30" viewBox="0 0 30 30" fill="none" xmlns="http://www.w3.org/2000/svg">
<path opacity="0.35" d="M20.12 27.5H9.87999C8.49124 27.5 7.21624 26.7325 6.56624 25.505L1.93374 16.755C1.35249 15.6575 1.35249 14.3438 1.93374 13.2463L6.56624 4.49625C7.21499 3.2675 8.48999 2.5 9.87999 2.5H20.1212C21.51 2.5 22.785 3.2675 23.435 4.495L28.0675 13.245C28.6487 14.3425 28.6487 15.6562 28.0675 16.7537L23.435 25.5037C22.785 26.7325 21.51 27.5 20.12 27.5Z" fill="#D03737"/>
<path d="M16.775 20.6113C16.775 21.1425 16.4663 22.5 14.9913 22.5C13.5163 22.5 13.2263 21.1425 13.2263 20.6113C13.2263 20.0925 13.555 18.7 14.9913 18.7C16.4275 18.7 16.775 20.0925 16.775 20.6113ZM13.3725 15.6238V9.07379C13.3725 8.17504 14.1013 7.44629 15 7.44629C15.8988 7.44629 16.6275 8.17504 16.6275 9.07379V15.625C16.6275 16.5238 15.8988 17.2525 15 17.2525C14.1013 17.2513 13.3725 16.5225 13.3725 15.6238Z" fill="#D03737"/>
</svg>
