<svg width="30" height="30" viewBox="0 0 30 30" fill="none" xmlns="http://www.w3.org/2000/svg">
<path opacity="0.35" d="M3.46501 17.9099C4.74876 19.1937 12.5163 25.6549 13.055 26.1937C13.5925 26.7312 14.2963 26.9987 15 26.9987C15.7038 26.9987 16.4075 26.7299 16.945 26.1937C17.485 25.6549 25.2525 19.1924 26.535 17.9099C29.4888 14.9562 29.4888 10.1687 26.535 7.21495C23.5813 4.2612 18.7938 4.2612 15.84 7.21495C15.52 7.53495 15.2513 7.88495 15 8.2437C14.7488 7.88495 14.48 7.53495 14.16 7.21495C11.2063 4.2612 6.41876 4.2612 3.46501 7.21495C0.511257 10.1687 0.511257 14.9562 3.46501 17.9099Z" fill="#141517"/>
<path d="M15 18.7762C15.6904 18.7762 16.25 18.2166 16.25 17.5262C16.25 16.8359 15.6904 16.2762 15 16.2762C14.3096 16.2762 13.75 16.8359 13.75 17.5262C13.75 18.2166 14.3096 18.7762 15 18.7762Z" fill="#141517"/>
<path d="M18.75 12.5C19.4404 12.5 20 11.9404 20 11.25C20 10.5596 19.4404 10 18.75 10C18.0596 10 17.5 10.5596 17.5 11.25C17.5 11.9404 18.0596 12.5 18.75 12.5Z" fill="#141517"/>
<path d="M12.5 13.75C13.1904 13.75 13.75 13.1904 13.75 12.5C13.75 11.8096 13.1904 11.25 12.5 11.25C11.8096 11.25 11.25 11.8096 11.25 12.5C11.25 13.1904 11.8096 13.75 12.5 13.75Z" fill="#141517"/>
<path d="M20 11.25L19.825 11.875V11.8875L19.7875 11.95L16.0625 18.1875L16.0125 18.2625L13.75 17.525V13.75H12.5L11.55 13.3H11.5375V13.2875L11.25 12.5V5.41248C12.3125 5.76248 13.3125 6.36248 14.1625 7.21248C14.475 7.53748 14.75 7.88748 15 8.23748C15.25 7.88748 15.525 7.53748 15.8375 7.21248C16.6875 6.36248 17.6875 5.76248 18.75 5.41248L17.6875 9.99998H18.75L20 11.25Z" fill="#141517"/>
</svg>
