<svg width="30" height="30" viewBox="0 0 30 30" fill="none" xmlns="http://www.w3.org/2000/svg">
<path d="M3.46507 17.9099C4.74882 19.1937 12.5163 25.6549 13.0551 26.1937C13.5926 26.7312 14.2963 26.9987 15.0001 26.9987C15.7038 26.9987 16.4076 26.7299 16.9451 26.1937C17.4851 25.6549 25.2526 19.1924 26.5351 17.9099C29.4888 14.9562 29.4888 10.1687 26.5351 7.21495C23.5813 4.2612 18.7938 4.2612 15.8401 7.21495C15.5201 7.53495 15.2513 7.88495 15.0001 8.2437C14.7488 7.88495 14.4801 7.53495 14.1601 7.21495C11.2063 4.2612 6.41882 4.2612 3.46507 7.21495C0.511318 10.1687 0.511318 14.9562 3.46507 17.9099Z" fill="#D03737"/>
</svg>
