<svg width="30" height="30" viewBox="0 0 30 30" fill="none" xmlns="http://www.w3.org/2000/svg">
<path d="M26.25 14.375C26.2543 16.0248 25.8688 17.6523 25.125 19.125C24.243 20.8897 22.8872 22.3739 21.2093 23.4116C19.5314 24.4492 17.5978 24.9992 15.625 25C13.9752 25.0043 12.3476 24.6188 10.875 23.875L3.75 26.25L6.125 19.125C5.38116 17.6523 4.9957 16.0248 5 14.375C5.00076 12.4022 5.55076 10.4685 6.5884 8.79066C7.62603 7.11279 9.11032 5.75693 10.875 4.87497C12.3476 4.13114 13.9752 3.74567 15.625 3.74997H16.25C18.8554 3.89371 21.3163 4.99343 23.1614 6.83855C25.0065 8.68367 26.1063 11.1445 26.25 13.75V14.375Z" stroke="#141517" stroke-width="2" stroke-linecap="round" stroke-linejoin="round"/>
</svg>
