<?xml version="1.0" standalone="no"?>
<!DOCTYPE svg PUBLIC "-//W3C//DTD SVG 20010904//EN"
 "http://www.w3.org/TR/2001/REC-SVG-20010904/DTD/svg10.dtd">
<svg version="1.0" xmlns="http://www.w3.org/2000/svg"
 width="100.000000pt" height="99.000000pt" viewBox="0 0 100.000000 99.000000"
 preserveAspectRatio="xMidYMid meet">
<metadata>
Created by potrace 1.16, written by Peter Selinger 2001-2019
</metadata>
<g transform="translate(0.000000,99.000000) scale(0.103093,-0.102062)"
fill="#000000" stroke="none">
<path d="M264 872 c-27 -21 -44 -54 -44 -83 0 -20 3 -19 39 14 39 35 77 54 88
43 4 -3 -1 -6 -9 -6 -20 0 -110 -79 -102 -91 7 -12 86 -12 119 1 16 6 24 6 20
0 -9 -15 -82 -31 -109 -24 -13 3 -31 2 -39 -3 -13 -7 -14 -12 -2 -40 12 -29
19 -33 51 -33 42 0 40 4 -7 28 -18 10 -35 24 -37 32 -4 12 -1 12 14 -2 26 -23
73 -40 93 -33 24 7 51 58 51 95 0 43 -25 87 -60 105 -36 19 -40 19 -66 -3z"/>
<path d="M227 623 c-19 -22 -22 -71 -7 -122 8 -28 5 -43 -17 -89 -29 -62 -36
-150 -14 -191 7 -13 9 -21 3 -17 -15 9 -20 -15 -10 -51 11 -42 51 -71 74 -53
13 12 10 18 -23 54 l-38 40 42 -36 c23 -21 65 -44 94 -52 66 -20 66 -20 43 6
-14 17 -11 16 14 -5 37 -29 89 -36 98 -13 3 8 11 13 18 10 20 -8 123 34 158
64 17 15 46 58 63 97 18 38 47 83 64 99 17 17 31 35 31 40 0 7 -23 11 -56 11
-51 0 -58 3 -89 37 -44 47 -53 33 -29 -44 23 -77 15 -92 -53 -96 -44 -3 -56 2
-111 38 -67 45 -78 67 -69 127 9 53 -14 97 -65 127 -63 37 -99 42 -121 19z"/>
</g>
</svg>
