<svg width="24" height="24" viewBox="0 0 24 24" fill="none" xmlns="http://www.w3.org/2000/svg">
<g clip-path="url(#clip0_943_1707)">
<path opacity="0.35" d="M19 12H19.803C21.907 12 23.796 10.463 23.984 8.368C24.122 6.823 23.373 5.45 22.196 4.672C22.198 4.666 22.203 4.654 22.203 4.654C22.203 4.654 18 1 11 1C9.895 1 9 1.895 9 3C9 4.105 9.895 5 11 5C11.168 5 11.329 4.973 11.486 4.934C11.942 4.831 14.024 4.431 16.219 5.145C15.813 5.545 15.489 6.029 15.283 6.573C15.011 7.287 14.427 7.838 13.746 8.185L13.693 8.212C12.899 8.616 11.985 8.631 11.137 8.357C7.413 7.153 3.711 9.275 3.14 13.014C3.093 13.011 3.048 13 3 13C1.895 13 1 13.895 1 15C1 16.105 1.895 17 3 17C3.128 17 3.25 16.982 3.37 16.956L3.781 20.248C3.906 21.249 4.757 22 5.766 22H5.926C6.262 22 6.627 22 7 22C8.785 22 10.884 22 12.365 22C13.188 22 13.955 21.401 13.998 20.58C14.017 20.215 13.905 19.879 13.706 19.612C13.365 19.156 13.311 18.527 13.704 18.114C13.71 18.107 13.717 18.101 13.723 18.094C14.154 17.638 14.892 17.71 15.177 18.268L16.14 20.157C16.165 20.217 16.181 20.273 16.215 20.337C16.234 20.372 16.258 20.394 16.278 20.428L16.299 20.469C16.299 20.469 16.31 20.476 16.313 20.478C17.407 22.299 19.5 22 19.5 22C20.328 22 21 21.328 21 20.5C21 19.672 20.328 19 19.5 19C19.085 18.922 18.854 18.538 18.746 18.293C18.123 15.594 18.452 13.234 18.735 11.973C18.824 11.979 18.909 12 19 12Z" fill="#121D56"/>
<path d="M20 9C20.5523 9 21 8.55228 21 8C21 7.44772 20.5523 7 20 7C19.4477 7 19 7.44772 19 8C19 8.55228 19.4477 9 20 9Z" fill="#121D56"/>
</g>
<defs>
<clipPath id="clip0_943_1707">
<rect width="24" height="24" fill="white"/>
</clipPath>
</defs>
</svg>
