<svg width="8" height="14" viewBox="0 0 8 14" fill="none" xmlns="http://www.w3.org/2000/svg">
<path d="M0.292892 1.70711C-0.0976319 1.31658 -0.0976319 0.683418 0.292892 0.292893C0.683416 -0.0976311 1.31658 -0.0976311 1.70711 0.292893L0.292892 1.70711ZM7 7L7.70711 6.29289C7.89464 6.48043 8 6.73478 8 7C8 7.26522 7.89464 7.51957 7.70711 7.70711L7 7ZM1.70711 13.7071C1.31658 14.0976 0.683416 14.0976 0.292892 13.7071C-0.0976319 13.3166 -0.0976319 12.6834 0.292892 12.2929L1.70711 13.7071ZM1.70711 0.292893L7.70711 6.29289L6.29289 7.70711L0.292892 1.70711L1.70711 0.292893ZM7.70711 7.70711L1.70711 13.7071L0.292892 12.2929L6.29289 6.29289L7.70711 7.70711Z" fill="#B1B1BB"/>
</svg>
